# xmcd
#
# Track frame offsets:
#  150
#  18582
#  33197
#  45891
#  57661
#  77833
#  91223
#  106206
#  118724
#  130868
#  146970
#  166153
#  183818
#
# Disc length: 2593 seconds
#
# Revision: 0
# Processed by: cddbd v1.5.1PL2 Copyright (c) Steve Scherf et al.
# Submitted via: Collectorz.com_Music_Collector 6.11
#
DISCID=a40a1f0d
DTITLE=Various Artist - Dutch Country Awards 2006 [CD2)
DYEAR=2006
DGENRE=Country general
TTITLE0=de Lange, Ilse - Was It Love
TTITLE1=Dixie Aces, The - Touch Me
TTITLE2=van Altena, Dick - Juliet
TTITLE3=Jansen, Johan - Crazy Arms
TTITLE4=Vanreys, Sandra - Silence
TTITLE5=Except-2 - Petticoat Junction
TTITLE6=Doreen - You Only Came Back To Leave Me
TTITLE7=Jansen, Frank - Tonight Carmen
TTITLE8=van de Griend, Jacqueline - Juanita
TTITLE9=Pols, Wim - One Day At A Time
TTITLE10=Bernhard, Johnny - Sweet Dreams
TTITLE11=Pinchitos Caliente - Otras Y Otras
TTITLE12=Ranch House Favorites - Total Stranger
EXTD=
EXTT0=
EXTT1=
EXTT2=
EXTT3=
EXTT4=
EXTT5=
EXTT6=
EXTT7=
EXTT8=
EXTT9=
EXTT10=
EXTT11=
EXTT12=
PLAYORDER=
